<?xml version="1.0" encoding="UTF-8" standalone="no"?>
<!-- Created with Inkscape (http://www.inkscape.org/) -->

<svg
   xmlns:dc="http://purl.org/dc/elements/1.1/"
   xmlns:cc="http://creativecommons.org/ns#"
   xmlns:rdf="http://www.w3.org/1999/02/22-rdf-syntax-ns#"
   xmlns:svg="http://www.w3.org/2000/svg"
   xmlns="http://www.w3.org/2000/svg"
   xmlns:sodipodi="http://sodipodi.sourceforge.net/DTD/sodipodi-0.dtd"
   xmlns:inkscape="http://www.inkscape.org/namespaces/inkscape"
   version="1.1"
   width="28.002001"
   height="60.666"
   viewBox="0 0 28.002001 60.666"
   id="Layer_1"
   xml:space="preserve"
   inkscape:version="0.48.4 r9939"
   sodipodi:docname="diploma11-2.svg"><sodipodi:namedview
   pagecolor="#ffffff"
   bordercolor="#666666"
   borderopacity="1"
   objecttolerance="10"
   gridtolerance="10"
   guidetolerance="10"
   inkscape:pageopacity="0"
   inkscape:pageshadow="2"
   inkscape:window-width="1366"
   inkscape:window-height="705"
   id="namedview2995"
   showgrid="false"
   fit-margin-top="0"
   fit-margin-left="0"
   fit-margin-right="0"
   fit-margin-bottom="0"
   inkscape:zoom="6.1616386"
   inkscape:cx="27.272129"
   inkscape:cy="30.706642"
   inkscape:window-x="-8"
   inkscape:window-y="-8"
   inkscape:window-maximized="1"
   inkscape:current-layer="Layer_1" /><metadata
   id="metadata3001"><rdf:RDF><cc:Work
       rdf:about=""><dc:format>image/svg+xml</dc:format><dc:type
         rdf:resource="http://purl.org/dc/dcmitype/StillImage" /><dc:title /></cc:Work></rdf:RDF></metadata><defs
   id="defs2999" />
<path
   d="m 25.740001,25.737 -0.099,0.895 c -0.162,1.477 -1.018,2.791 -2.305,3.533 -1.279,0.742 -2.853,0.83 -4.209,0.229 l -0.826,-0.36 -0.537,0.729 c -0.877,1.199 -2.277,1.904 -3.762,1.904 -1.485,0 -2.885,-0.705 -3.762,-1.904 L 9.7040003,30.034 8.878,30.393 C 7.525,30.995 5.958,30.907 4.669,30.164 3.382,29.422 2.527,28.111 2.363,26.631 L 2.265,25.736 1.369,25.638 C 0.87300004,25.579 0.444,25.347 0,25.148 l 0,35.518 14.000001,-9.334 14,9.334 0,-35.517 c -0.442,0.199 -0.871,0.434 -1.367,0.49 z m -1.484,-14.486 3.746,2.75 -3.746,2.742 1.871,4.252 -4.619,0.51 -0.504,4.619 -4.252,-1.871 -2.748,3.748 -2.75,-3.748 L 7.004,26.124 6.5,21.505 1.879,21.001 3.752,16.749 0.004,14.001 3.752,11.251 1.879,7.0009998 l 4.621,-0.505 0.504,-4.62 4.250001,1.872 2.75,-3.74800002091977 2.748,3.74800002091977 4.252,-1.872 0.504,4.62 4.619,0.505 z m -4.498,2.75 c 0,-3.18 -2.576,-5.7560002 -5.754,-5.7560002 C 10.826001,8.2449998 8.25,10.821 8.25,14.001 c 0,3.178 2.576001,5.754 5.754001,5.754 3.178,0 5.754,-2.577 5.754,-5.754 z"
   id="path2995"
   inkscape:connector-curvature="0" />
</svg>